HIERARCHY
ROOT Hips
{
  OFFSET 0.713205 96.6049 68.1984
  CHANNELS 6 Xposition Yposition Zposition Zrotation Xrotation Yrotation
  JOINT RightUpLeg
  {
    OFFSET -8.9458 -8.66707 0.101652
    CHANNELS 3 Zrotation Xrotation Yrotation
    JOINT RightLeg
    {
      OFFSET 0 -44.4227 1.3727
      CHANNELS 3 Zrotation Xrotation Yrotation
      JOINT RightFoot
      {
        OFFSET 0.253549 -42.0924 -1.46059
        CHANNELS 3 Zrotation Xrotation Yrotation
        JOINT RightToes
        {
          OFFSET 0.04 -4.41509 8.4991
          CHANNELS 3 Zrotation Xrotation Yrotation
          End Site
          {
            OFFSET -0.08 -0.137448 9.77979
          }
        }
      }
    }
  }
  JOINT Spine
  {
    OFFSET 0 11.8905 0
    CHANNELS 3 Zrotation Xrotation Yrotation
    JOINT Spine1
    {
      OFFSET 0 25.6574 0.127663
      CHANNELS 3 Zrotation Xrotation Yrotation
      JOINT HEad
      {
        OFFSET 0 8.73416 0.011341
        CHANNELS 3 Zrotation Xrotation Yrotation
        End Site
        {
          OFFSET -0.29 12.7742 2.51395
        }
      }
      JOINT LeftShoulder1
      {
        OFFSET 8.99 -0.362252 -0.22
        CHANNELS 3 Zrotation Xrotation Yrotation
        JOINT LeftArm
        {
          OFFSET 10.2827 -0.00338 0.322123
          CHANNELS 3 Zrotation Xrotation Yrotation
          JOINT LeftForeArm
          {
            OFFSET 32.7669 0.099144 -1.42434
            CHANNELS 3 Zrotation Xrotation Yrotation
            JOINT LeftHand
            {
              OFFSET 27.5643 0.085362 1.02216
              CHANNELS 3 Zrotation Xrotation Yrotation
              End Site
              {
                OFFSET 16.7443 -0.6 1.50291
              }
            }
          }
        }
      }
      JOINT RightShoulder
      {
        OFFSET -8.99 -0.362252 -0.22
        CHANNELS 3 Zrotation Xrotation Yrotation
        JOINT RightArm
        {
          OFFSET -10.2827 -0.00338 0.322123
          CHANNELS 3 Zrotation Xrotation Yrotation
          JOINT RightForeArm
          {
            OFFSET -32.8971 0.099144 -1.42434
            CHANNELS 3 Zrotation Xrotation Yrotation
            JOINT RightHand
            {
              OFFSET -27.4921 0.085362 1.02216
              CHANNELS 3 Zrotation Xrotation Yrotation
              End Site
              {
                OFFSET -16.6312 -0.6 1.50291
              }
            }
          }
        }
      }
    }
  }
  JOINT LeftUpLeg
  {
    OFFSET 8.9458 -8.66707 0.101652
    CHANNELS 3 Zrotation Xrotation Yrotation
    JOINT LeftLeg
    {
      OFFSET 0 -44.4227 1.3727
      CHANNELS 3 Zrotation Xrotation Yrotation
      JOINT LeftFoot
      {
        OFFSET -0.253549 -42.0924 -1.46059
        CHANNELS 3 Zrotation Xrotation Yrotation
        JOINT LeftToes
        {
          OFFSET -0.04 -4.41509 8.4991
          CHANNELS 3 Zrotation Xrotation Yrotation
          End Site
          {
            OFFSET 0.08 -0.047448 9.77979
          }
        }
      }
    }
  }
}
MOTION
Frames:	22
Frame Time:	0.0166667
0.713205 96.6049 68.1984 -8.52801 -1.24583 -83.3461 -16.8366 -23.5181 1.7141 8.52077 33.4676 -12.9046 36.6077 41.9568 -16.3432 -43.8723 -40.5717 3.40783 1.27594 9.21288 -3.12578 -0.78497 18.1024 -5.86984 10.3982 -2.54862 -20.4835 1.80824e-032 2.60594e-015 -3.97569e-016 -73.7593 -6.70447 -66.415 15.3276 28.7627 -122.373 -0.598027 9.73509 18.3167 29.0549 -2.26658 -9.64302 70.0189 -41.9997 48.1895 -10.9405 30.821 132.312 7.27459 8.68376 -21.8041 23.5507 2.89973 -4.39898 -20.0971 24.8575 33.5228 12.798 30.8806 -4.53289 55.2553 -47.4414 32.8711 
-0.417744 96.0668 68.3593 -9.54173 0.0879144 -84.2379 -16.9271 -24.4836 2.82598 10.8728 35.5618 -11.7413 41.1984 42.9475 -18.9363 -43.5819 -42.0445 6.09031 1.30661 9.58 -3.48954 0.140551 18.8607 -6.75561 10.2621 -2.39879 -18.869 5.96354e-016 -6.95746e-016 -7.95139e-016 -76.2242 -6.64177 -68.6711 16.4763 28.6647 -124.075 -0.265769 9.76421 19.5947 28.929 -2.07237 -9.03939 68.3776 -40.5616 45.4931 -11.9508 29.8816 131.883 6.37758 8.8093 -21.9852 24.4581 5.44366 -6.1148 -19.599 23.6098 38.6514 18.8313 31.6702 -6.74375 59.4462 -48.3619 36.5655 
-1.75384 95.5733 68.3785 -10.2167 1.32657 -84.752 -16.8335 -24.9702 3.43287 11.9403 36.4848 -10.0961 42.7952 42.2032 -19.4286 -42.8331 -42.6888 8.16451 1.2209 9.72834 -3.93269 1.05874 19.2079 -7.8543 10.201 -1.75201 -17.4118 2.48481e-016 -2.18663e-015 -0 -78.2197 -6.50367 -69.8707 17.8433 28.4613 -125.335 -0.674862 9.69165 21.0943 28.5695 -1.88397 -8.49872 66.5302 -38.8918 42.7444 -12.772 28.7905 131.31 6.61346 8.70264 -23.0656 25.3109 8.13476 -8.00733 -18.6087 22.0093 42.0863 22.5111 31.1367 -7.93652 61.7016 -48.566 38.8573 
-3.23941 95.1318 68.2483 -10.3993 2.20206 -84.7829 -16.8472 -24.9381 3.59332 11.5843 36.0352 -8.8493 40.7846 40.264 -17.6982 -42.5945 -42.4875 8.21846 1.11688 9.59868 -4.38139 1.73798 18.9956 -8.92543 10.259 -0.619881 -16.4592 4.96962e-017 -2.2736e-015 1.59028e-015 -79.5571 -6.3682 -69.78 19.0646 28.3259 -125.889 -1.63144 9.52819 22.2626 28.3739 -1.82722 -8.35144 64.3533 -37.3376 40.2039 -13.1165 27.815 130.864 7.35094 8.50511 -24.1318 25.9357 10.375 -9.51179 -17.3697 20.3227 43.8126 24.2078 30.3063 -8.34683 62.5475 -48.4126 40.0258 
-4.7874 94.7755 67.9699 -10.0154 2.55839 -84.3585 -17.2276 -24.4475 3.75146 10.5019 34.1907 -8.9197 35.7436 37.1606 -14.3395 -41.1377 -40.1824 6.88527 1.09111 9.17829 -4.7568 2.01371 18.1674 -9.72819 10.4142 0.779032 -16.201 -8.94531e-016 4.88265e-015 -3.18055e-015 -79.9057 -6.28457 -68.2285 19.7237 28.1436 -125.721 -2.71792 9.34624 22.6747 28.5209 -1.91646 -8.61661 61.791 -36.5144 37.9725 -12.8719 27.1387 130.979 7.83087 8.39501 -24.4821 26.3203 11.6124 -10.2829 -16.3833 19.032 44.1619 24.5098 29.8231 -8.34071 62.666 -48.1722 40.5048 
-6.33124 94.5091 67.5466 -9.12114 2.36642 -83.5896 -18.0742 -23.5876 4.40637 9.48635 31.3214 -10.528 29.5471 32.6864 -10.5352 -36.1327 -34.7459 5.92159 1.15197 8.5265 -4.98434 1.83026 16.8369 -10.0986 10.6456 2.00888 -16.6362 6.95746e-016 -6.49777e-015 -3.18055e-015 -78.8662 -6.19699 -65.289 19.432 27.6251 -124.943 -3.42432 9.25439 22.1034 28.9115 -2.08681 -9.09057 59.0492 -37.0748 36.2058 -12.2351 26.7697 132.079 7.803 8.43493 -24.0223 26.5608 11.5151 -10.3052 -16.0975 18.7166 43.4061 23.7575 30.1621 -8.15908 62.9653 -48.0328 41.0364 
-7.83627 94.2766 67.0014 -7.89818 1.71894 -82.5956 -19.3429 -22.5206 5.89138 9.04394 28.2372 -13.324 24.1755 27.0365 -7.34841 -28.0261 -26.8272 5.66811 1.25023 7.78958 -5.00995 1.25729 15.3131 -9.97498 10.9493 2.53109 -17.6522 5.96354e-016 3.42904e-015 -0 -76.3828 -5.99641 -61.4305 18.0513 26.7023 -123.781 -3.37238 9.31991 20.5118 29.271 -2.25637 -9.55762 56.6458 -39.5028 35.3219 -11.6472 26.5846 134.317 7.59528 8.52882 -23.2392 26.7781 9.97868 -9.80443 -16.6544 19.9763 41.5821 21.9484 31.6194 -7.8383 64.0885 -48.049 42.2359 
-9.26646 93.9974 66.3981 -6.62155 0.822114 -81.4821 -20.8782 -21.4819 8.26086 9.48879 25.9413 -16.7853 20.4198 20.5423 -5.03914 -19.2772 -18.32 5.25098 1.40503 7.15798 -4.81357 0.477691 13.9867 -9.37532 11.2758 1.97389 -19.157 -1.98785e-016 -1.6027e-015 7.95139e-016 -72.9614 -5.71064 -57.3811 15.7885 25.6968 -122.528 -2.52641 9.50861 18.0643 29.2712 -2.34988 -9.8597 55.2719 -44.0243 35.9473 -11.5578 26.4161 137.356 7.72077 8.52608 -22.9987 27.0904 7.16643 -9.08209 -17.8672 23.0822 38.7414 19.0504 34.3051 -7.29671 66.21 -48.3013 44.1282 
-10.5718 93.608 65.8236 -5.60891 -0.112971 -80.3744 -22.4753 -20.5842 11.1367 10.9296 25.0024 -20.3365 18.1083 13.5931 -3.40069 -11.9612 -11.2158 4.44021 1.66012 6.76613 -4.4141 -0.289323 13.1368 -8.37615 11.4809 0.384403 -21.115 -1.20693e-033 -1.73937e-016 -3.97569e-016 -69.3243 -5.5449 -53.7429 13.0507 24.9803 -121.388 -1.17756 9.71745 15.1494 28.5754 -2.27898 -9.80257 55.5784 -50.3793 38.7245 -12.2789 26.0942 140.24 8.48287 8.30423 -24.1827 27.5574 3.558 -8.37522 -19.4129 27.6951 35.2289 15.3527 38.1149 -6.47198 69.0991 -49.1271 45.9387 
-11.7091 93.0856 65.3489 -5.11176 -1.00693 -79.4703 -24.0115 -19.748 13.6297 13.006 25.1356 -23.2515 16.8541 7.71226 -2.33947 -7.79244 -7.24205 3.86574 1.93992 6.63861 -3.85573 -0.894765 12.8384 -7.08458 11.3818 -1.7986 -23.4565 1.98785e-016 1.42411e-015 2.48481e-017 -66.0625 -5.72105 -50.7649 10.3702 24.6361 -120.487 0.25846 9.86324 12.3169 26.8624 -1.95478 -9.12532 57.7335 -57.4007 44.0537 -14.1665 25.3585 141.482 9.86577 7.7669 -27.2912 28.1114 -0.18041 -7.78682 -21.0786 33.0342 31.6091 11.4073 42.4934 -5.35986 72.0548 -50.9225 46.4496 
-12.6316 92.4326 65.0402 -5.19762 -1.91749 -79.0884 -25.5041 -19.0792 14.6641 14.8615 25.9042 -24.5532 16.4207 5.3784 -1.96217 -8.33451 -7.77818 4.12948 2.03391 6.71127 -3.14762 -1.32396 12.9912 -5.59959 10.8893 -3.97912 -25.9665 -1.98785e-016 8.75895e-016 7.95139e-016 -63.5299 -6.35985 -48.3627 8.30463 24.4989 -119.979 1.49193 9.93361 10.0907 23.8773 -1.34807 -7.57002 59.8517 -63.1002 50.5976 -17.8497 23.8631 139.411 11.6917 6.82594 -32.3027 28.5843 -3.48154 -7.26981 -22.9298 38.3187 28.4933 7.71448 46.2566 -4.01294 74.1507 -53.4139 45.2423 
-13.3551 91.7088 64.9146 -5.73156 -2.84431 -79.5064 -26.9316 -18.8014 13.6324 15.6339 27.0568 -23.7743 16.7916 7.96776 -2.36661 -14.0058 -13.2032 4.76615 1.96601 6.90465 -2.36655 -1.64284 13.3981 -4.02551 10.1023 -5.59906 -28.2476 2.48481e-016 -9.28697e-016 -7.95139e-016 -61.8288 -7.50677 -46.2074 7.12724 24.4118 -119.982 2.44624 9.96151 8.76954 19.4788 -0.536071 -4.9091 56.365 -65.9296 53.0882 -23.6575 22.068 132.585 14.2221 5.28079 -38.7511 28.9829 -5.9619 -6.75677 -25.2545 42.7061 26.3263 4.71704 48.0917 -2.66612 74.5842 -55.4986 43.0005 
-13.9457 90.9559 64.9442 -6.47304 -3.74324 -80.8392 -28.2575 -19.0373 10.7757 14.9689 28.4112 -21.3306 18.1588 14.2186 -3.50534 -23.3868 -21.9386 4.46335 1.74216 7.12516 -1.60796 -1.9595 13.8458 -2.51647 9.29267 -6.31787 -29.8441 5.46658e-016 -3.55949e-015 -7.95139e-016 -60.8273 -9.16212 -43.9219 6.64191 24.3689 -120.427 3.13975 9.97831 8.29728 13.771 0.260545 -1.0597 43.5113 -65.163 47.0832 -30.2244 21.9363 120.492 18.6233 2.63646 -45.3071 29.4449 -7.4876 -6.25725 -28.3632 45.5308 25.508 2.81198 47.3109 -1.68906 72.8162 -56.2673 40.2479 
-14.51 90.2526 65.0798 -7.18639 -4.51569 -82.8531 -29.3533 -19.6577 7.15749 13.2396 29.7395 -17.9981 20.3792 20.8644 -5.08475 -33.463 -30.5633 2.77876 1.40935 7.31695 -0.97563 -2.31422 14.2255 -1.25665 8.77175 -6.22427 -30.5471 -1.98785e-016 -2.01269e-015 -0 -60.2471 -11.1714 -41.4036 6.36282 24.4548 -120.998 3.61044 9.99332 8.25138 7.34202 0.715101 3.5361 16.8231 -46.0936 30.8444 -33.3284 11.359 92.8186 27.7195 -1.94968 -48.7313 30.135 -8.07675 -5.94101 -32.031 46.2881 26.2301 2.11029 44.4687 -1.26743 69.0391 -55.5983 37.1923 
-15.1561 89.7316 65.2921 -7.68015 -5.02073 -84.9366 -30.1152 -20.3268 4.14504 11.4996 30.748 -14.7339 22.6156 25.2533 -6.51016 -41.0535 -36.4102 0.850863 1.17676 7.49503 -0.562401 -2.61233 14.5737 -0.387744 8.75758 -5.85754 -30.6415 -3.97569e-016 7.45443e-017 7.95139e-016 -59.8695 -13.1219 -39.0216 5.83874 24.77 -121.244 3.91873 9.99909 8.08114 1.32738 0.657323 7.58592 4.55676 -26.5596 26.6871 -34.0021 3.23674 66.6118 37.1592 -5.26145 -46.4015 31.0826 -7.95276 -6.0713 -35.3085 44.9151 28.0444 2.20994 40.9052 -1.2152 64.2508 -53.889 34.2542 
-15.9626 89.5139 65.5814 -7.80919 -5.16935 -86.3499 -30.6001 -20.5798 2.54239 10.7851 31.1345 -12.5927 23.7482 26.7049 -7.14571 -44.4241 -38.8457 -0.110724 1.25177 7.70238 -0.405799 -2.70577 14.9827 0.0429881 9.32755 -5.86652 -30.7635 -7.95139e-016 8.69683e-016 1.59028e-015 -59.7038 -14.5014 -37.4797 4.86119 25.4133 -120.83 4.08558 9.9875 7.49225 -2.99141 0.334107 9.39097 0.785224 -18.2292 26.1401 -32.8527 -0.216508 54.7092 42.7782 -6.18518 -42.9839 32.1044 -7.57764 -6.74343 -37.2227 42.0846 29.9557 2.51591 37.736 -1.25154 59.4124 -51.6411 31.7875 
-16.9645 89.6675 65.9592 -7.52982 -4.9925 -86.609 -30.8979 -20.0695 2.34293 11.3723 30.7906 -12.0061 23.0899 25.4637 -6.69292 -43.1918 -37.9872 0.281388 1.6526 7.93747 -0.478491 -2.53291 15.4605 0.0504266 10.3434 -6.47844 -31.369 3.97569e-016 1.14301e-015 -0 -59.8221 -15.0507 -37.3188 3.46493 26.4196 -119.737 4.07425 9.96061 6.56914 -4.66441 0.16636 7.98939 2.97102 -22.3517 26.685 -32.6012 0.250447 58.5217 45.3702 -6.7916 -42.006 32.9128 -7.40831 -7.71872 -37.4668 38.9633 31.0013 2.59058 35.4317 -1.21159 55.1593 -49.3367 29.9095 
-18.143 90.1858 66.4252 -6.96161 -4.60933 -85.7524 -30.9658 -18.7507 3.19879 12.75 29.8135 -12.5661 20.7346 21.8913 -5.35696 -37.8115 -33.9514 1.67455 2.18553 8.13163 -0.735677 -2.18107 15.8769 -0.352883 11.4065 -7.22355 -32.3517 3.97569e-016 0 -0 -60.0452 -14.9629 -38.4296 1.8573 27.6427 -118.292 3.89149 9.92935 5.55051 -3.2353 0.226912 3.95435 11.4126 -38.2434 29.1986 -32.6933 5.88387 78.0524 45.6697 -7.77388 -43.7673 33.2972 -7.56808 -8.60415 -36.3862 36.6045 30.7799 2.21948 33.921 -1.03087 51.9075 -47.5055 28.4528 
-19.4239 90.9842 66.9639 -6.32392 -4.14804 -84.3121 -30.6608 -16.8824 4.7504 14.056 28.3871 -13.5699 17.4807 16.8018 -3.75156 -29.8192 -27.3241 3.01284 2.58285 8.21422 -1.1407 -1.83302 16.0838 -1.12487 12.0555 -7.3221 -33.236 5.0691e-032 -3.65267e-015 7.95139e-016 -60.0658 -14.7987 -40.2475 0.422327 28.7889 -117.068 3.61303 9.90503 4.68974 0.949764 0.183604 -0.938054 30.6716 -60.6989 39.9259 -32.2686 16.0048 108.03 44.6261 -8.3365 -45.8643 33.2464 -7.78772 -9.15379 -34.6245 35.4447 29.71 1.40636 32.8314 -0.713583 49.7068 -46.5205 26.9964 
-20.6959 91.9385 67.5684 -5.76395 -3.69547 -82.9997 -29.9593 -14.9675 6.59328 14.5931 26.7493 -14.5162 14.4897 11.7449 -2.49945 -21.4691 -19.7598 3.32696 2.67493 8.18278 -1.63048 -1.66992 16.0565 -2.11344 12.0861 -6.4488 -33.5891 -3.97569e-016 -2.88238e-015 -2.38542e-015 -59.867 -15.1518 -42.4171 -0.32995 29.6344 -116.695 3.31306 9.8968 4.36323 6.84182 -0.207352 -5.14073 45.3618 -68.3125 49.9933 -29.7175 14.036 127.449 46.328 -9.07 -45.7833 32.9138 -7.68731 -9.33431 -32.8028 35.2294 28.716 0.455927 31.9194 -0.36706 48.4046 -46.3322 25.4711 
-21.8493 92.95 68.2557 -5.27698 -3.26638 -82.3313 -29.0347 -13.5789 8.25479 14.1937 25.1963 -15.188 12.711 8.34966 -1.84322 -14.6001 -13.2808 2.6244 2.47055 8.08521 -2.11152 -1.78891 15.8701 -3.09987 11.6746 -4.9724 -33.2052 1.98785e-016 -1.61513e-015 -7.95139e-016 -59.794 -16.2406 -45.0121 0.0245247 30.0943 -117.567 3.0349 9.90935 5.00273 13.6562 -0.940807 -8.36918 45.9987 -69.1954 48.5254 -24.7506 8.35394 140.178 48.3889 -9.75266 -45.2794 32.4709 -7.08961 -9.15933 -31.2862 35.3861 28.4346 -0.0685989 31.3317 -0.182105 47.9696 -46.6153 24.4081 
-22.8164 93.9591 69.0419 -4.78709 -2.80649 -82.4522 -28.1187 -13.0829 9.36852 13.2853 23.9394 -15.6735 12.3654 7.45843 -1.70477 -10.0943 -9.02716 1.55096 2.08885 7.96255 -2.52595 -2.15729 15.6034 -3.95546 11.2053 -3.45611 -32.0987 -7.45443e-017 -3.41351e-015 3.97569e-016 -60.2824 -17.7604 -48.2456 1.6154 30.096 -119.599 2.76757 9.93821 6.73911 21.0913 -2.02987 -11.1427 41.3103 -68.0655 43.0843 -19.6978 4.61581 149.794 49.4953 -10.0114 -44.8166 32.0071 -6.07847 -8.58432 -30.0691 35.4392 28.7155 0.315247 31.3238 -0.312915 48.5472 -47.1405 24.4092 
